/* XPM */
static char *charizard[] = {
/* columns rows colors chars-per-pixel */
"112 112 15 1 ",
"  c black",
". c gray25",
"X c #F86038",
"o c #C03858",
"O c #984048",
"+ c #C86868",
"@ c #F8A050",
"# c #F8E840",
"$ c #3870B8",
"% c #5898A0",
"& c #E0B898",
"* c #C0C0C0",
"= c #F8E0C0",
"- c #F8F8F8",
"; c None",
/* pixels */
";;;;;;;;;;;;;;;;;;;;;;;;;;;;;;;;;;;;;;;;;;;;;;;;;;;;;;;;;;;;;;;;;;;;;;;;;;;;;;;;;;;;;;;;;;;;;;;;;;;;;;;;;;;;;;;;",
";;;;;;;;;;;;;;;;;;;;;;;;;;;;;;;;;;;;;;;;;;;;;;;;;;;;;;;;;;;;;;;;;;;;;;;;;;;;;;;;;;;;;;;;;;;;;;;;;;;;;;;;;;;;;;;;",
";;;;;;;;;;;;;;;;;;;;;;;;;;;;;;;;;;;;;;;;;;;;;;;;;;;;;;;;;;;;;;;;;;;;;;;;;;;;;;;;;;;;;;;;;;;;;;;;;;;;;;;;;;;;;;;;",
";;;;;;;;;;;;;;;;;;;;;;;;;;;;;;;;;;;;;;;;;;;;;;;;;;;;;;;;;;;;;;;;;;;;;;;;;;;;;;;;;;;;;;;;;;;;;;;;;;;;;;;;;;;;;;;;",
";;;;;;;;;;;;;;;;;;;;;;;;;;;;;;;;;;;;;;;;;;;;;;;;;;;;;;;;;;;;;;;;;;;;;;;;;;;;;;;;;;;;;;;;;;;;;;;;;;;;;;;;;;;;;;;;",
";;;;;;;;;;;;;;;;;;;;;;;;;;;;;;;;;;;;;;;;;;;;;;;;;;;;;;;;;;;;;;;;;;;;;;;;;;;;;;;;;;;;;;;;;;;;;;;;;;;;;;;;;;;;;;;;",
";;;;;;;;;;;;;;;;;;;;;;;;;;;;;;;;;;;;;;;;;;;;;;;;;;;;;;;;;;;;;;;;;;;;;;;;;;;;;;;;;;;;;;;;;;;;;;;;;;;;;;;;;;;;;;;;",
";;;;;;;;;;;;;;;;;;;;;;;;;;;;;;;;;;;;;;;;;;;;;;;;;;;;;;;;;;;;;;;;;;;;;;;;;;;;;;;;;;;;;;;;;;;;;;;;;;;;;;;;;;;;;;;;",
";;;;;;;;;;;;;;;;;;;;;;;;;;;;;;;;;;;;;;;;;;;;;;;;;;;;;;;;;;;;;;;;;;;;;;;;;;;;;;;;;;;;;;;;;;;;;;;;;;;;;;;;;;;;;;;;",
";;;;;;;;;;;;;;;;;;;;;;;;;;;;;;;;;;;;;;;;;;;;;;;;;;;;;;;;;;;;;;;;;;;;;;;;;;;;;;;;;;;;;;;;;;;;;;;;;;;;;;;;;;;;;;;;",
";;;;;;;;;;;;;;;;;;;;;;;;;;;;;;;;;;;;;;;;;;;;;;;;;;;;;;;;;;;;;;;;;;;;;;;;;;;;;;;;;;;;;;;;;;;;;;;;;;;;;;;;;;;;;;;;",
";;;;;;;;;;;;;;;;;;;;;;;;;;;;;;;;;;;;;;;;;;;;;;;;;;;;;;;;;;;;;;;;;;;;;;;;;;;;;;;;;;;;;;;;;;;;;;;;;;;;;;;;;;;;;;;;",
";;;;;;;;;;;;;;;;;;;;;;;;;;;;;;;;;;;;;;;;;;;;;;;;;;;;;;;;;;;;;;;;;;;;;;;;;;;;;;;;;;;;;;;;;;;;;;;;;;;;;;;;;;;;;;;;",
";;;;;;;;;;;;;;;;;;;;;;;;;;;;;;;;;;;;;;;;;;;;;;;;;;;;;;;;;;;;;;;;;;;;;;;;;;;;;;;;;;;;;;;;;;;;;;;;;;;;;;;;;;;;;;;;",
";;;;;;;;;;;;;;;;;;;;;;;;;;;;;;;;;;;;;;;;;;;;;;;;;;;;;;;;;;;;;;;;;;;;;;;;;;;;;;;;;;;;;;;;;;;;;;;;;;;;;;;;;;;;;;;;",
";;;;;;;;;;;;;;;;;;;;;;;;;;;;;;;;;;;;;;;;;;;;;;;;;;;;;;;;;;;;;;;;;;;;;;;;;;;;;;;;;;;;;;;;;;;;;;;;;;;;;;;;;;;;;;;;",
";;;;;;;;;;;;;;;;;;;;;;;;;;;;;;;;;;;;;;;;;;;;;;;;;;;;;;;;;;;;;;;;;;;;;;;;;;;;;;;;;;;;;;;;;;;;;;;;;;;;;;;;;;;;;;;;",
";;;;;;;;;;;;;;;;;;;;;;;;;;;;;;;;;;;;;;;;;;;;;;;;;;;;;;;;;;;;;;;;;;;;;;;;;;;;;;;;;;;;;;;;;;;;;;;;;;;;;;;;;;;;;;;;",
";;;;;;;;;;;;;;;;;;;;;;;;;;;;;;;;;;;;;;;;;;;;;;;;;;;;;;;;;;;;;;;;;;;;;;;;;;;;;;;;;;;;;;;;;;;;;;;;;;;;;;;;;;;;;;;;",
";;;;;;;;;;;;;;;;;;;;;;;;;;;;;;;;;;;;;;;;;;;;;;;;;;;;;;;;;;;;;;;;;;;;;;;;;;;;;;;;;;;;;;;;;;;;;;;;;;;;;;;;;;;;;;;;",
";;;;;;;;;;;;;;;;;;;;;;;;;;;;;;;;;;;;;;;;;;;;;;;;;;;;;;;;;;;;;;;;;;;;;;;;;;;;;;;;;;;;;;;;;;;;;;;;;;;;;;;;;;;;;;;;",
";;;;;;;;;;;;;;;;;;;;;;;;;;;;;;;;;;;;;;;;;;;;;;;;;;;;;;;;;;;;;;;;;;;;;;;;;;;;;;;;;;;;;;;;;;;;;;;;;;;;;;;;;;;;;;;;",
";;;;;;;;;;;;;;;;;;;;;;;;;;;;;;;;;;;;;;;;;;;;;;;;;;;;;;;;;;;;;;;;;;;;;;;;;;;;;;;;;;;;;;;;;;;;;;;;;;;;;;;;;;;;;;;;",
";;;;;;;;;;;;;;;;;;;;;;;;;;;;;;;;;;;;;;;;;;;;;;;;;;;;;;;;;;;;;;;;;;;;;;;;;;;;;;;;;;;;;;;;;;;;;;;;;;;;;;;;;;;;;;;;",
";;;;;;;;;;;;;;;;;;;;;;;;;;;;;;;;;;;;;;;;;;;;;;;;;;;;;;;;;;;;;;;;;;;;;;;;;;;;;;;;;;;;;;;;;;;;;;;;;;;;;;;;;;;;;;;;",
";;;;;;;;;;;;;;;;;;;;;;;;;;;;;;;;;;;;;;;;;;;;;;;;;;;;;;;;;;;;;;;;;;;;;;;;;;;;;;;;;;;;;;;;;;;;;;;;;;;;;;;;;;;;;;;;",
";;;;;;;;;;;;;;;;;;;;;;;;;;;;;;;;;;;;;;;;;;;;;;;;;;;;;;;;;;;;;;;;;;;;;;;;;;;;;;;;;;;;;;;;;;;;;;;;;;;;;;;;;;;;;;;;",
";;;;;;;;;;;;;;;;;;;;;;;;;;;;;;;;;;;;;;;;;;;;;;;;;;;;;;;;;;;;;;;;;;;;;;;;;;;;;;;;;;;;;;;;;;;;;;;;;;;;;;;;;;;;;;;;",
";;;;;;;;;;;;;;;;;;;;;;;;;;;;;;;;;;;;;;;;;;;;;;;;;;;;;;;;;;;;;;;;;;;;;;;;;;;;;;;;;;;;;;;;;;;;;;;;;;;;;;;;;;;;;;;;",
";;;;;;;;;;;;;;;;;;;;;;;;;;;;;;;;;;;;;;;;;;;;;;;;;;;;;;;;;;;;;;;;;;;;;;;;;;;;;;;;;;;;;;;;;;;;;;;;;;;;;;;;;;;;;;;;",
";;;;;;;;;;;;;;;;;;;;;;;;;;;;;;;;;;;;;;;;;;;;;;;;;;;;;;;;;;;;;;;;;;;;;;;;;;;;;;;;;;;;;;  ;;;;;;;;;;;;;;;;;;;;;;;;",
";;;;;;;;;;;;;;;;;;;;;;;;;;;;;;;;;;;;;;;;;;;;;;;;;;;;;;;;;;;;;;;;;;;;;;;;;;;;;;;;;;;;;;  ;;;;;;;;;;;;;;;;;;;;;;;;",
";;;;;;;;;;;;;;;;;;;;;;;;;;;;;;;;;;;;;;;;;;;;;;;;;;;;;;;;;;;;;;;;;;;;;;;;;;;;;;;;;;;;  XX  ;;;;;;;;;;;;;;;;;;;;;;",
";;;;;;;;;;;;;;;;;;;;;;;;;;;;;;;;;;;;;;;;;;;;;;;;;;;;;;;;;;;;;;;;;;;;;;;;;;;;;;;;;;;;  XX  ;;;;;;;;;;;;;;;;;;;;;;",
";;;;;;;;;;;;;;;;;;;;;;;;;;;;;;;;;;;;;;;;;;;;;;;;;;;;;;;;;;;;;;;;;;;;;;;;;;;;;;;;;;;;  XXXX  ;;;;;;;;;;;;;;;;;;;;",
";;;;;;;;;;;;;;;;;;;;;;;;;;;;;;;;;;;;;;;;;;;;;;;;;;;;;;;;;;;;;;;;;;;;;;;;;;;;;;;;;;;;  XXXX  ;;;;;;;;;;;;;;;;;;;;",
";;;;;;;;;;;;;;;;;;;;;;;;;;;;;;;;;;;;;;;;;;;;;;;;;;;;;;;;;;;;;;;;;;;;;;;;;;;;;;;;;;  XXXXXX  ;;;;;;;;;;;;;;;;;;;;",
";;;;;;;;;;;;;;;;;;;;;;;;;;;;;;;;;;;;;;;;;;;;;;;;;;;;;;;;;;;;;;;;;;;;;;;;;;;;;;;;;;  XXXXXX  ;;;;;;;;;;;;;;;;;;;;",
";;;;;;;;;;;;;;;;;;;;;;;;;;;;;;;;;;;;;;;;;;;;;;;;;;;;;;;;;;;;;;;;;;;;;;;;;;;;;;;;  XXXXXX  ;;;;;;;;;;;;;;;;;;;;;;",
";;;;;;;;;;;;;;;;;;;;;;;;;;;;;;;;;;;;;;;;;;;;;;;;;;;;;;;;;;;;;;;;;;;;;;;;;;;;;;;;  XXXXXX  ;;;;;;;;;;;;;;;;;;;;;;",
";;;;;;;;;;;;;;;;;;;;;;;;;;;;;;;;;;;;;;;;;;;;;;;;;;;;;;;;;;;;;;;;;;;;;;;;;;;;;;;;  XX@@XX  ;;  ;;;;;;;;;;;;;;;;;;",
";;;;;;;;;;;;;;;;;;;;;;;;;;;;;;;;;;;;;;;;;;;;;;;;;;;;;;;;;;;;;;;;;;;;;;;;;;;;;;;;  XX@@XX  ;;  ;;;;;;;;;;;;;;;;;;",
";;;;;;;;;;;;;;;;;;;;;;;;  ;;;;;;;;;;    ;;;;;;;;;;;;;;;;;;;;;;;;;;;;;;;;;;;;;;  XXXX##XXXX  @@  ;;;;;;;;;;;;;;;;",
";;;;;;;;;;;;;;;;;;;;;;;;  ;;;;;;;;;;    ;;;;;;;;;;;;;;;;;;;;;;;;;;;;;;;;;;;;;;  XXXX##XXXX  @@  ;;;;;;;;;;;;;;;;",
";;;;;;;;;;;;;;;;;;;;;;  ++  ;;;;;;  OOOO    ;;;;;;;;;;;;;;;;;;;;;;;;;;;;;;;;;;  XX##@@XXXXXX##  ;;;;;;;;;;;;;;;;",
";;;;;;;;;;;;;;;;;;;;;;  ++  ;;;;;;  OOOO    ;;;;;;;;;;;;;;;;;;;;;;;;;;;;;;;;;;  XX##@@XXXXXX##  ;;;;;;;;;;;;;;;;",
";;;;;;;;;;;;;;;;;;;;;;  ++  ;;;;;;;;  OOOOOO  ;;;;;;      ;;;;;;;;;;;;;;;;;;;;  @@##@@XXXX@@##  ;;;;;;;;;;;;;;;;",
";;;;;;;;;;;;;;;;;;;;;;  ++  ;;;;;;;;  OOOOOO  ;;;;;;      ;;;;;;;;;;;;;;;;;;;;  @@##@@XXXX@@##  ;;;;;;;;;;;;;;;;",
";;;;;;;;;;;;;;;;;;;;  ++++  ;;;;;;  @@..OOOOOO  ;;  @@@@++  ;;;;;;;;;;;;;;;;;;  ######@@####  ;;;;;;;;;;;;;;;;;;",
";;;;;;;;;;;;;;;;;;;;  ++++  ;;;;;;  @@..OOOOOO  ;;  @@@@++  ;;;;;;;;;;;;;;;;;;  ######@@####  ;;;;;;;;;;;;;;;;;;",
";;;;;;;;;;;;;;;;;;;;  ++  ;;;;;;  @@@@..OOOOOOOO  ;;  @@@@@@  ;;;;;;;;;;;;;;;;;;  ##########  ;;;;;;;;;;;;;;;;;;",
";;;;;;;;;;;;;;;;;;;;  ++  ;;;;;;  @@@@..OOOOOOOO  ;;  @@@@@@  ;;;;;;;;;;;;;;;;;;  ##########  ;;;;;;;;;;;;;;;;;;",
";;;;;;;;;;;;;;;;;;  ++++    ;;  @@@@..  OOOOOOOO  ;;;;  OO@@@@        ;;;;;;;;;;  ########  ;;;;;;;;;;;;;;;;;;;;",
";;;;;;;;;;;;;;;;;;  ++++    ;;  @@@@..  OOOOOOOO  ;;;;  OO@@@@        ;;;;;;;;;;  ########  ;;;;;;;;;;;;;;;;;;;;",
";;;;;;;;;;;;;;;;;;  ++@@@@@@  @@@@++  ;;  OOOOOOOO  ;;;;  ++@@@@++++@@      ;;;;;;  @@##@@  ;;;;;;;;;;;;;;;;;;;;",
";;;;;;;;;;;;;;;;;;  ++@@@@@@  @@@@++  ;;  OOOOOOOO  ;;;;  ++@@@@++++@@      ;;;;;;  @@##@@  ;;;;;;;;;;;;;;;;;;;;",
";;;;;;;;;;;;;;;;  @@@@@@@@@@@@@@@@  ;;;;;;  OOOOOOOO  ;;  ++....@@@@++@@@@@@  ;;;;;;  @@  ;;;;;;;;;;;;;;;;;;;;;;",
";;;;;;;;;;;;;;;;  @@@@@@@@@@@@@@@@  ;;;;;;  OOOOOOOO  ;;  ++....@@@@++@@@@@@  ;;;;;;  @@  ;;;;;;;;;;;;;;;;;;;;;;",
";;;;;;;;;;;;;;  @@@@@@@@@@@@@@@@@@@@    ;;  OOOOOO  OO  ++++..$$....@@++@@@@@@  ;;;;  ++  ;;;;;;;;;;;;;;;;;;;;;;",
";;;;;;;;;;;;;;  @@@@@@@@@@@@@@@@@@@@    ;;  OOOOOO  OO  ++++..$$....@@++@@@@@@  ;;;;  ++  ;;;;;;;;;;;;;;;;;;;;;;",
";;;;;;;;;;;;  @@@@@@@@@@@@@@@@@@@@@@++++  ..OOOO  ;;  ++++..$$$$%%%%..@@++@@@@@@  ;;  ++++  ;;;;;;;;;;;;;;;;;;;;",
";;;;;;;;;;;;  @@@@@@@@@@@@@@@@@@@@@@++++  ..OOOO  ;;  ++++..$$$$%%%%..@@++@@@@@@  ;;  ++++  ;;;;;;;;;;;;;;;;;;;;",
";;;;;;;;;;;;  @@@@@@@@@@@@++++@@@@@@++++++++..OO  ;;  ++..$$$$$$$$%%%%..++++@@@@  ;;;;  ++  ;;;;;;;;;;;;;;;;;;;;",
";;;;;;;;;;;;  @@@@@@@@@@@@++++@@@@@@++++++++..OO  ;;  ++..$$$$$$$$%%%%..++++@@@@  ;;;;  ++  ;;;;;;;;;;;;;;;;;;;;",
";;;;;;;;;;;;;;  @@@@@@@@OO--@@@@@@++++++++++++..OO  ++++..$$$$$$$$$$      @@++@@@@  ;;  ++  ;;;;;;;;;;;;;;;;;;;;",
";;;;;;;;;;;;;;  @@@@@@@@OO--@@@@@@++++++++++++..OO  ++++..$$$$$$$$$$      @@++@@@@  ;;  ++  ;;;;;;;;;;;;;;;;;;;;",
";;;;;;;;;;;;;;  @@++@@OO  ----++++++..++++++++@@....++..$$$$$$      ;;;;;;  @@++@@  ;;  ++++  ;;;;;;;;;;;;;;;;;;",
";;;;;;;;;;;;;;  @@++@@OO  ----++++++..++++++++@@....++..$$$$$$      ;;;;;;  @@++@@  ;;  ++++  ;;;;;;;;;;;;;;;;;;",
";;;;;;;;;;;;  @@@@++@@  %%--++++++++    ++++++++@@@@......$$  ;;;;;;;;;;;;;;  ++@@@@  ..++++  ;;;;;;;;;;;;;;;;;;",
";;;;;;;;;;;;  @@@@++@@  %%--++++++++    ++++++++@@@@......$$  ;;;;;;;;;;;;;;  ++@@@@  ..++++  ;;;;;;;;;;;;;;;;;;",
";;;;;;;;;;  @@@@@@@@++OO@@++++++++  ;;;;  ++++++@@@@@@@@@@  ;;;;;;;;;;;;;;;;  @@++@@....++++++  ;;;;;;;;;;;;;;;;",
";;;;;;;;;;  @@@@@@@@++OO@@++++++++  ;;;;  ++++++@@@@@@@@@@  ;;;;;;;;;;;;;;;;  @@++@@....++++++  ;;;;;;;;;;;;;;;;",
";;;;;;;;  @@@@@@@@@@@@@@++++....++..    OO..++++++@@@@@@@@@@    ;;;;;;;;;;;;;;  @@++..++++++++  ;;;;;;;;;;;;;;;;",
";;;;;;;;  @@@@@@@@@@@@@@++++....++..    OO..++++++@@@@@@@@@@    ;;;;;;;;;;;;;;  @@++..++++++++  ;;;;;;;;;;;;;;;;",
";;;;;;;;  @@@@OO@@@@@@++....ooOO++..OOOOOO..++++++@@@@..@@@@@@..  ;;;;;;;;;;;;;;  @@++..++++++  ;;;;;;;;;;;;;;;;",
";;;;;;;;  @@@@OO@@@@@@++....ooOO++..OOOOOO..++++++@@@@..@@@@@@..  ;;;;;;;;;;;;;;  @@++..++++++  ;;;;;;;;;;;;;;;;",
";;;;;;;;;;  ++++@@++    ..ooOO++..OOOO  ..++OOOO@@@@@@@@....@@@@@@  ;;;;;;;;;;;;    @@++..++++  ;;;;;;;;;;;;;;;;",
";;;;;;;;;;  ++++@@++    ..ooOO++..OOOO  ..++OOOO@@@@@@@@....@@@@@@  ;;;;;;;;;;;;    @@++..++++  ;;;;;;;;;;;;;;;;",
";;;;;;;;;;;;        --  ooooOO++..OO  ;;  OO====OOOO@@@@@@@@..@@@@..  ;;;;;;;;  ++++..@@..++  ;;;;;;;;;;;;;;;;;;",
";;;;;;;;;;;;        --  ooooOO++..OO  ;;  OO====OOOO@@@@@@@@..@@@@..  ;;;;;;;;  ++++..@@..++  ;;;;;;;;;;;;;;;;;;",
";;;;;;;;;;;;;;;;;;;;  --ooOO++..OO  ;;;;  ==========OO@@@@@@..@@@@..++        OO++++++..++++  ;;;;;;;;;;;;;;;;;;",
";;;;;;;;;;;;;;;;;;;;  --ooOO++..OO  ;;;;  ==========OO@@@@@@..@@@@..++        OO++++++..++++  ;;;;;;;;;;;;;;;;;;",
";;;;;;;;;;;;;;;;;;;;  ..++--  OO**  ;;;;  ============OO....@@@@..++++++..OOOOOOOO++OO++++  ;;;;;;;;;;;;;;;;;;;;",
";;;;;;;;;;;;;;;;;;;;  ..++--  OO**  ;;;;  ============OO....@@@@..++++++..OOOOOOOO++OO++++  ;;;;;;;;;;;;;;;;;;;;",
";;;;;;;;;;;;;;;;;;;;;;      ;;    ;;;;  ++..==========..++OO@@@@..@@++++..OOOOOO++OO++OO  ;;;;;;;;;;;;;;;;;;;;;;",
";;;;;;;;;;;;;;;;;;;;;;      ;;    ;;;;  ++..==========..++OO@@@@..@@++++..OOOOOO++OO++OO  ;;;;;;;;;;;;;;;;;;;;;;",
";;;;;;;;;;;;;;;;;;;;;;;;;;;;;;;;;;;;  ++++..==========..OO@@++@@..@@@@++++..OOOOOO++&&  ;;;;;;;;;;;;;;;;;;;;;;;;",
";;;;;;;;;;;;;;;;;;;;;;;;;;;;;;;;;;;;  ++++..==========..OO@@++@@..@@@@++++..OOOOOO++&&  ;;;;;;;;;;;;;;;;;;;;;;;;",
";;;;;;;;;;;;;;;;;;;;;;;;;;;;;;;;;;;;  ++++++..&&====&&&&..--..--..@@@@@@++..&&&&&&    ;;;;;;;;;;;;;;;;;;;;;;;;;;",
";;;;;;;;;;;;;;;;;;;;;;;;;;;;;;;;;;;;  ++++++..&&====&&&&..--..--..@@@@@@++..&&&&&&    ;;;;;;;;;;;;;;;;;;;;;;;;;;",
";;;;;;;;;;;;;;;;;;;;;;;;;;;;;;;;;;;;  ++++++++..&&&&&&&&&&..@@..@@@@@@++++..      ;;;;;;;;;;;;;;;;;;;;;;;;;;;;;;",
";;;;;;;;;;;;;;;;;;;;;;;;;;;;;;;;;;;;  ++++++++..&&&&&&&&&&..@@..@@@@@@++++..      ;;;;;;;;;;;;;;;;;;;;;;;;;;;;;;",
";;;;;;;;;;;;;;;;;;;;;;;;;;;;;;;;;;;;;;  ++++++++....&&&&&&..@@@@@@@@@@++++  ;;;;;;;;;;;;;;;;;;;;;;;;;;;;;;;;;;;;",
";;;;;;;;;;;;;;;;;;;;;;;;;;;;;;;;;;;;;;  ++++++++....&&&&&&..@@@@@@@@@@++++  ;;;;;;;;;;;;;;;;;;;;;;;;;;;;;;;;;;;;",
";;;;;;;;;;;;;;;;;;;;;;;;;;;;;;;;;;;;;;;;  OO++++++++..      ++@@@@OO++++  ;;;;;;;;;;;;;;;;;;;;;;;;;;;;;;;;;;;;;;",
";;;;;;;;;;;;;;;;;;;;;;;;;;;;;;;;;;;;;;;;  OO++++++++..      ++@@@@OO++++  ;;;;;;;;;;;;;;;;;;;;;;;;;;;;;;;;;;;;;;",
";;;;;;;;;;;;;;;;;;;;;;;;;;;;;;;;;;;;;;  ++++OOOOOO    ;;;;  ++++++++++++  ;;;;;;;;;;;;;;;;;;;;;;;;;;;;;;;;;;;;;;",
";;;;;;;;;;;;;;;;;;;;;;;;;;;;;;;;;;;;;;  ++++OOOOOO    ;;;;  ++++++++++++  ;;;;;;;;;;;;;;;;;;;;;;;;;;;;;;;;;;;;;;",
";;;;;;;;;;;;;;;;;;;;;;;;;;;;;;;;;;;;  --..--++++  ;;;;;;;;;;  ++++++++++++  ;;;;;;;;;;;;;;;;;;;;;;;;;;;;;;;;;;;;",
";;;;;;;;;;;;;;;;;;;;;;;;;;;;;;;;;;;;  --..--++++  ;;;;;;;;;;  ++++++++++++  ;;;;;;;;;;;;;;;;;;;;;;;;;;;;;;;;;;;;",
";;;;;;;;;;;;;;;;;;;;;;;;;;;;;;;;;;;;;;          ;;;;;;;;;;;;;;  ++++++++++  ;;;;;;;;;;;;;;;;;;;;;;;;;;;;;;;;;;;;",
";;;;;;;;;;;;;;;;;;;;;;;;;;;;;;;;;;;;;;          ;;;;;;;;;;;;;;  ++++++++++  ;;;;;;;;;;;;;;;;;;;;;;;;;;;;;;;;;;;;",
";;;;;;;;;;;;;;;;;;;;;;;;;;;;;;;;;;;;;;;;;;;;;;;;;;;;;;;;;;;;  --OOOO++++  ;;;;;;;;;;;;;;;;;;;;;;;;;;;;;;;;;;;;;;",
";;;;;;;;;;;;;;;;;;;;;;;;;;;;;;;;;;;;;;;;;;;;;;;;;;;;;;;;;;;;  --OOOO++++  ;;;;;;;;;;;;;;;;;;;;;;;;;;;;;;;;;;;;;;",
";;;;;;;;;;;;;;;;;;;;;;;;;;;;;;;;;;;;;;;;;;;;;;;;;;;;;;;;;;;;;;  ..--..--  ;;;;;;;;;;;;;;;;;;;;;;;;;;;;;;;;;;;;;;",
";;;;;;;;;;;;;;;;;;;;;;;;;;;;;;;;;;;;;;;;;;;;;;;;;;;;;;;;;;;;;;  ..--..--  ;;;;;;;;;;;;;;;;;;;;;;;;;;;;;;;;;;;;;;",
";;;;;;;;;;;;;;;;;;;;;;;;;;;;;;;;;;;;;;;;;;;;;;;;;;;;;;;;;;;;;;;;        ;;;;;;;;;;;;;;;;;;;;;;;;;;;;;;;;;;;;;;;;",
";;;;;;;;;;;;;;;;;;;;;;;;;;;;;;;;;;;;;;;;;;;;;;;;;;;;;;;;;;;;;;;;        ;;;;;;;;;;;;;;;;;;;;;;;;;;;;;;;;;;;;;;;;",
";;;;;;;;;;;;;;;;;;;;;;;;;;;;;;;;;;;;;;;;;;;;;;;;;;;;;;;;;;;;;;;;;;;;;;;;;;;;;;;;;;;;;;;;;;;;;;;;;;;;;;;;;;;;;;;;",
";;;;;;;;;;;;;;;;;;;;;;;;;;;;;;;;;;;;;;;;;;;;;;;;;;;;;;;;;;;;;;;;;;;;;;;;;;;;;;;;;;;;;;;;;;;;;;;;;;;;;;;;;;;;;;;;",
";;;;;;;;;;;;;;;;;;;;;;;;;;;;;;;;;;;;;;;;;;;;;;;;;;;;;;;;;;;;;;;;;;;;;;;;;;;;;;;;;;;;;;;;;;;;;;;;;;;;;;;;;;;;;;;;",
";;;;;;;;;;;;;;;;;;;;;;;;;;;;;;;;;;;;;;;;;;;;;;;;;;;;;;;;;;;;;;;;;;;;;;;;;;;;;;;;;;;;;;;;;;;;;;;;;;;;;;;;;;;;;;;;"
};
